<?xml version="1.0" encoding="UTF-8"?>
<svg version="1.1" xmlns="http://www.w3.org/2000/svg" width="127" height="127">
<path d="M0 0 C0.82886719 0.48726563 1.65773438 0.97453125 2.51171875 1.4765625 C3.66027344 2.0953125 4.80882813 2.7140625 5.9921875 3.3515625 C7.22979733 4.05651348 8.46544518 4.76491881 9.69921875 5.4765625 C10.32763672 5.83234375 10.95605469 6.188125 11.60351562 6.5546875 C14.17878248 8.03099021 16.40310601 9.36794976 18.51171875 11.4765625 C19.12573483 15.20037753 19.1138932 18.95840184 19.19921875 22.7265625 C19.26560547 23.76425781 19.33199219 24.80195312 19.40039062 25.87109375 C19.54931427 33.39414006 19.54931427 33.39414006 16.62426758 36.44555664 C14.31664441 37.99056961 12.00549838 39.25952308 9.51171875 40.4765625 C8.64160156 41.04246094 7.77148438 41.60835937 6.875 42.19140625 C6.19824219 42.59488281 5.52148438 42.99835938 4.82421875 43.4140625 C4.13972656 43.83558594 3.45523438 44.25710937 2.75 44.69140625 C-0.41731517 45.80245398 -2.25716026 45.3646252 -5.48828125 44.4765625 C-7.99605862 43.23088706 -10.34619101 41.97076905 -12.73828125 40.5390625 C-13.3621875 40.17876953 -13.98609375 39.81847656 -14.62890625 39.44726562 C-17.17819726 37.95560074 -19.39158354 36.57326021 -21.48828125 34.4765625 C-21.99608509 30.70627069 -21.90502554 26.90216359 -21.92578125 23.1015625 C-21.95865234 22.04710938 -21.99152344 20.99265625 -22.02539062 19.90625 C-22.07938438 12.17041813 -22.07938438 12.17041813 -19.3984375 9.0234375 C-18.43808594 8.51296875 -17.47773438 8.0025 -16.48828125 7.4765625 C-15.36036137 6.74405992 -14.23550967 6.00681773 -13.11328125 5.265625 C-11.90771117 4.53966215 -10.69932565 3.81835587 -9.48828125 3.1015625 C-8.885 2.72128906 -8.28171875 2.34101562 -7.66015625 1.94921875 C-3.2065537 -0.67453406 -3.2065537 -0.67453406 0 0 Z " fill="#FDBA04" transform="translate(44.48828125,78.5234375)"/>
<path d="M0 0 C2.50777737 1.24567544 4.85790976 2.50579345 7.25 3.9375 C7.87390625 4.29779297 8.4978125 4.65808594 9.140625 5.02929688 C11.68991601 6.52096176 13.90330229 7.90330229 16 10 C16.50780384 13.77029181 16.41674429 17.57439891 16.4375 21.375 C16.47037109 22.42945312 16.50324219 23.48390625 16.53710938 24.5703125 C16.59117694 32.31671941 16.59117694 32.31671941 13.84375 35.4921875 C12.9053125 35.98976562 11.966875 36.48734375 11 37 C10.04222656 37.63421875 9.08445313 38.2684375 8.09765625 38.921875 C7.09605469 39.52515625 6.09445313 40.1284375 5.0625 40.75 C3.56396484 41.67039062 3.56396484 41.67039062 2.03515625 42.609375 C-1.45534032 44.20862439 -3.2069613 44.58207638 -7 44 C-9.74100788 42.77581127 -12.22523076 41.24204277 -14.75 39.625 C-15.42160156 39.2125 -16.09320313 38.8 -16.78515625 38.375 C-19.4146067 36.74147367 -21.80446615 35.19553385 -24 33 C-24.61401608 29.27618497 -24.60217445 25.51816066 -24.6875 21.75 C-24.75388672 20.71230469 -24.82027344 19.67460938 -24.88867188 18.60546875 C-25.03759552 11.08242244 -25.03759552 11.08242244 -22.11254883 8.03100586 C-19.80492566 6.48599289 -17.49377963 5.21703942 -15 4 C-13.69482422 3.15115234 -13.69482422 3.15115234 -12.36328125 2.28515625 C-11.34814453 1.67994141 -11.34814453 1.67994141 -10.3125 1.0625 C-9.62800781 0.64097656 -8.94351563 0.21945313 -8.23828125 -0.21484375 C-5.07096608 -1.32589148 -3.23112099 -0.8880627 0 0 Z " fill="#FDBA04" transform="translate(68,42)"/>
<path d="M0 0 C0.82886719 0.48726563 1.65773438 0.97453125 2.51171875 1.4765625 C3.66027344 2.0953125 4.80882813 2.7140625 5.9921875 3.3515625 C7.22979733 4.05651348 8.46544518 4.76491881 9.69921875 5.4765625 C10.32763672 5.83234375 10.95605469 6.188125 11.60351562 6.5546875 C14.17878248 8.03099021 16.40310601 9.36794976 18.51171875 11.4765625 C19.12573483 15.20037753 19.1138932 18.95840184 19.19921875 22.7265625 C19.26560547 23.76425781 19.33199219 24.80195312 19.40039062 25.87109375 C19.54931427 33.39414006 19.54931427 33.39414006 16.62426758 36.44555664 C14.31664441 37.99056961 12.00549838 39.25952308 9.51171875 40.4765625 C8.64160156 41.04246094 7.77148438 41.60835937 6.875 42.19140625 C6.19824219 42.59488281 5.52148438 42.99835938 4.82421875 43.4140625 C4.13972656 43.83558594 3.45523438 44.25710937 2.75 44.69140625 C-0.41731517 45.80245398 -2.25716026 45.3646252 -5.48828125 44.4765625 C-7.99605862 43.23088706 -10.34619101 41.97076905 -12.73828125 40.5390625 C-13.3621875 40.17876953 -13.98609375 39.81847656 -14.62890625 39.44726562 C-17.17819726 37.95560074 -19.39158354 36.57326021 -21.48828125 34.4765625 C-21.99608509 30.70627069 -21.90502554 26.90216359 -21.92578125 23.1015625 C-21.95865234 22.04710938 -21.99152344 20.99265625 -22.02539062 19.90625 C-22.07938438 12.17041813 -22.07938438 12.17041813 -19.3984375 9.0234375 C-18.43808594 8.51296875 -17.47773437 8.0025 -16.48828125 7.4765625 C-15.36036137 6.74405992 -14.23550967 6.00681773 -13.11328125 5.265625 C-11.90771117 4.53966215 -10.69932565 3.81835587 -9.48828125 3.1015625 C-8.885 2.72128906 -8.28171875 2.34101562 -7.66015625 1.94921875 C-3.2065537 -0.67453406 -3.2065537 -0.67453406 0 0 Z " fill="#FDBA03" transform="translate(86.48828125,78.5234375)"/>
<path d="M0 0 C0.62197266 0.20786133 1.24394531 0.41572266 1.88476562 0.62988281 C6.9634693 2.39867271 11.77866219 4.54863641 15 9 C16.2866338 13.07396872 16.51989996 16.93194704 16.5625 21.1875 C16.58876465 22.24533691 16.6150293 23.30317383 16.64208984 24.39306641 C16.4986666 27.59753689 16.20505179 30.02302793 15 33 C11.96983892 35.7564625 8.70435309 37.31856692 5 39 C3.36319243 39.95929836 1.73607845 40.93559252 0.125 41.9375 C-3.45023181 44.09451255 -3.45023181 44.09451255 -5.88452148 43.67602539 C-8.06567905 42.97901151 -9.86641529 42.0992282 -11.85546875 40.96875 C-12.55994141 40.57042969 -13.26441406 40.17210937 -13.99023438 39.76171875 C-14.71533203 39.34535156 -15.44042969 38.92898437 -16.1875 38.5 C-16.92419922 38.08363281 -17.66089844 37.66726562 -18.41992188 37.23828125 C-23.847498 34.152502 -23.847498 34.152502 -25 33 C-25.47581673 29.1170794 -25.5580876 25.21984639 -25.6875 21.3125 C-25.76677734 20.22259766 -25.84605469 19.13269531 -25.92773438 18.00976562 C-26.01352688 14.73169374 -25.95171512 12.14320157 -25 9 C-22.00724498 6.15698672 -18.73727805 4.6680742 -15 3 C-13.40075158 2.02565461 -11.81438074 1.0293966 -10.25 0 C-6.24123394 -2.57050648 -4.31704536 -1.76653914 0 0 Z " fill="#FDBA04" transform="translate(48,5)"/>
<path d="M0 0 C0.81726563 0.49886719 1.63453125 0.99773438 2.4765625 1.51171875 C3.7185388 2.14229481 4.96361702 2.76678093 6.2109375 3.38671875 C7.55095001 4.09226561 8.88946581 4.80066155 10.2265625 5.51171875 C11.25330078 6.04539062 11.25330078 6.04539062 12.30078125 6.58984375 C17.35737449 9.27334274 17.35737449 9.27334274 18.4765625 11.51171875 C18.90404002 15.25235059 18.98646802 19.0004313 19.1015625 22.76171875 C19.20791016 24.31826172 19.20791016 24.31826172 19.31640625 25.90625 C19.39174963 29.01119055 19.32603281 31.52022769 18.4765625 34.51171875 C15.83090494 37.27811681 12.89272012 38.8461404 9.4765625 40.51171875 C8.60644531 41.07761719 7.73632812 41.64351562 6.83984375 42.2265625 C6.16308594 42.63003906 5.48632812 43.03351562 4.7890625 43.44921875 C4.10457031 43.87074219 3.42007813 44.29226562 2.71484375 44.7265625 C-2.23657826 46.46344875 -7.20904549 44.15992446 -11.74291992 42.03540039 C-15.60336817 39.9781562 -18.91005751 38.100074 -21.5234375 34.51171875 C-23.58153246 27.44305823 -23.37014428 18.63538067 -21.5234375 11.51171875 C-18.67875617 7.9434409 -14.54439026 5.94904372 -10.6484375 3.69921875 C-9.58689453 3.05049805 -9.58689453 3.05049805 -8.50390625 2.38867188 C-3.26370076 -0.63152105 -3.26370076 -0.63152105 0 0 Z " fill="#FDBA04" transform="translate(86.5234375,3.48828125)"/>
<path d="M0 0 C4.20201526 2.91923789 5.64497281 5.68473527 6.70166016 10.67724609 C7.54415636 18.05615956 7.91689137 25.9950364 3.35986328 32.24072266 C-1.50088277 36.84958131 -7.27348666 39.93766611 -13.93505859 40.90380859 C-19.53273333 40.36023534 -23.57147335 37.28372849 -27.93505859 33.90380859 C-29.02302734 33.40236328 -30.11099609 32.90091797 -31.23193359 32.38427734 C-34.97928276 28.94559711 -35.0069699 26.1236124 -35.32739258 21.16699219 C-35.51537155 7.06552064 -35.51537155 7.06552064 -32.35302734 2.73974609 C-22.16324148 -6.22404975 -11.56723089 -6.3476982 0 0 Z " fill="#FDBA04" transform="translate(120.93505859375,46.09619140625)"/>
<path d="M0 0 C4.23073008 2.93009582 5.63003049 5.68073606 6.62695312 10.71459961 C7.35875309 17.79927178 8.05933298 26.15339805 3.37451172 32.01586914 C-2.02425846 36.50521051 -8.36740203 38.71532216 -14.93945312 40.90600586 C-21.95290436 39.22553728 -29.26617724 35.43116214 -33.93945312 29.90600586 C-37.16644148 22.07136144 -37.02489428 12.77088321 -33.93945312 4.90600586 C-25.0635408 -6.64563577 -11.80697564 -6.45208023 0 0 Z " fill="#FDBA04" transform="translate(35.939453125,46.093994140625)"/>
</svg>
